This award-winning drama by noted director Ismael Rodríguez revolves around a festival of mayordomía in the provinces, or something on the idea of "king for a day." In the annual celebration, the church elects one man as "chief," an honor that is gained by buying it, in effect. Whoever donates the most, gets the coveted title. Celebrated Japanese star Toshiro Mifune plays the lead character, Animas Trujano, a rough peasant who abuses his children and does nothing while his wife supports the family. Animas would like to be "chief" in the annual festival and begins to do everything he can to get the needed money. Meanwhile, Animas' wife is headed for some serious trouble in connection with a local woman of dubious morals that Animas has been seeing.

   General
      Complete name : Animas Trujano.avi
      Format : AVI
      Format/Info : Audio Video Interleave
      File size : 1.16 GiB
      Duration : 1h 39mn
      Overall bit rate : 1 662 Kbps
      Writing application : FairUse Wizard - http://fairusewizard.com
      Writing library : The best and REALLY easy backup tool
   Video #0
      ID : 0
      Format : MPEG-4 Visual
      Format profile : AdvancedSimple@L5
      Format settings, BVOP : Yes
      Format settings, QPel : No
      Format settings, GMC : No warppoints
      Format settings, Matrix : Default (MPEG)
      Muxing mode : Packed bitstream
      Codec ID : XVID
      Codec ID/Hint : XviD
      Duration : 1h 39mn
      Bit rate : 1 429 Kbps
      Width : 624 pixels
      Height : 464 pixels
      Display aspect ratio : 4:3
      Frame rate : 23.976 fps
      Resolution : 24 bits
      Colorimetry : 4:2:0
      Scan type : Progressive
      Bits/(Pixel*Frame) : 0.206
      Stream size : 1 017 MiB (86%)
      Writing library : XviD 1.2.0.dev47 (UTC 2006-11-01)
   Audio #1
      ID : 1
      Format : AC-3
      Format/Info : Audio Coding 3
      Codec ID : 2000
      Duration : 1h 39mn
      Bit rate mode : Constant
      Bit rate : 224 Kbps
      Channel(s) : 2 channels
      Channel positions : L R
      Sampling rate : 48.0 KHz
      Stream size : 159 MiB (13%)
      Alignment : Split accross interleaves
      Interleave, duration : 42 ms (1.00 video frame)
      Interleave, preload duration : 500 ms

Spanish audio; English, French and Portuguese subtitles (srt), English, Spanish, French and Portuguese subpack

IMDB: tt0055646